Coordinates
version=1
nRows=14
nColumns=24
inDegrees=yes

Units are S.I. units (second, meters, Newtons, ...)
Angles are in degrees.

endheader
time	pelvis_tilt	pelvis_list	pelvis_rotation	pelvis_tx	pelvis_ty	pelvis_tz	hip_flexion_r	hip_adduction_r	hip_rotation_r	knee_angle_r	ankle_angle_r	subtalar_angle_r	mtp_angle_r	hip_flexion_l	hip_adduction_l	hip_rotation_l	knee_angle_l	ankle_angle_l	subtalar_angle_l	mtp_angle_l	lumbar_extension	lumbar_bending	lumbar_rotation
      4.99000000	     50.30215670	      2.03544149	     -2.23783191	      0.75243102	      0.96455544	     -0.27475824	     16.65379608	    -14.32685393	      7.91524394	    -62.64895395	      7.26114672	     16.05854256	    -34.48558804	     16.22371236	     -2.80449757	     -2.31222016	    -53.55150369	      3.26533026	     16.59379228	    -27.43836350	      0.00000000	      0.00000000	      0.00000000
      5.00000000	     50.31290727	      2.04214778	     -2.18512824	      0.75250354	      0.96469201	     -0.27485605	     16.62392245	    -14.36084921	      7.86314632	    -62.67091163	      7.30901771	     16.07873991	    -34.33061657	     16.18852035	     -3.02829763	     -2.21872404	    -54.34914551	      3.21925892	     16.59801557	    -27.21239439	      0.00000000	      0.00000000	      0.00000000
      5.01000000	     50.32145106	      2.04562419	     -2.14012442	      0.75252768	      0.96484435	     -0.27493597	     16.60184100	    -14.39426769	      7.81550037	    -62.68416457	      7.30195508	     16.15467410	    -34.16450095	     16.18235258	     -3.27256427	     -2.12981350	    -55.22739482	      3.08767122	     16.61681170	    -26.89835404	      0.00000000	      0.00000000	      0.00000000
      5.02000000	     50.31822250	      2.03861377	     -2.11074435	      0.75256284	      0.96481585	     -0.27501544	     16.60058871	    -14.41557985	      7.78343731	    -62.69399104	      7.22451432	     16.29308460	    -33.98909976	     16.19774130	     -3.53682915	     -2.04015643	    -56.15467536	      2.89432915	     16.64043643	    -26.56425529	      0.00000000	      0.00000000	      0.00000000
      5.03000000	     50.29878770	      2.02025724	     -2.09903526	      0.75261422	      0.96465213	     -0.27510154	     16.62438875	    -14.41492506	      7.77575250	    -62.70666415	      7.07432531	     16.48206354	    -33.81759011	     16.22319344	     -3.81717410	     -1.93916196	    -57.09854561	      2.67654723	     16.65609961	    -26.28166621	      0.00000000	      0.00000000	      0.00000000
      5.04000000	     50.26849764	      1.99611080	     -2.09813374	      0.75266487	      0.96449201	     -0.27516603	     16.66676433	    -14.38914296	      7.79515065	    -62.72738391	      6.87174076	     16.68410718	    -33.67752423	     16.24757865	     -4.10693310	     -1.81385256	    -58.03652362	      2.47419461	     16.65043742	    -26.11492987	      0.00000000	      0.00000000	      0.00000000
      5.05000000	     50.23988172	      1.97425208	     -2.09170318	      0.75269658	      0.96437660	     -0.27519780	     16.71244380	    -14.34674638	      7.83377071	    -62.75995828	      6.66727858	     16.83435574	    -33.61111955	     16.26036296	     -4.39931673	     -1.65281269	    -58.95894577	      2.32134894	     16.61199104	    -26.11109409	      0.00000000	      0.00000000	      0.00000000
      5.06000000	     50.22628117	      1.96059566	     -2.05857783	      0.75270206	      0.96424529	     -0.27525761	     16.74293345	    -14.30993533	      7.86861802	    -62.80592990	      6.54207491	     16.84765356	    -33.67232251	     16.25009749	     -4.69013376	     -1.45003364	    -59.86542166	      2.24144718	     16.53315282	    -26.29233729	      0.00000000	      0.00000000	      0.00000000
      5.07000000	     50.23607481	      1.95628332	     -1.98339322	      0.75271633	      0.96407093	     -0.27541272	     16.74324279	    -14.30924565	      7.85866798	    -62.86147420	      6.59723631	     16.63636416	    -33.92083493	     16.20485242	     -4.97664229	     -1.20820897	    -60.75929379	      2.24482574	     16.41143828	    -26.65230887	      0.00000000	      0.00000000	      0.00000000
      5.08000000	     50.26804820	      1.95987241	     -1.87069759	      0.75277019	      0.96396831	     -0.27559842	     16.70358239	    -14.36839078	      7.74749637	    -62.91478279	      6.93088742	     16.13731538	    -34.41383975	     16.11763278	     -5.25110330	     -0.94060098	    -61.64370666	      2.32733230	     16.25009139	    -27.15710436	      0.00000000	      0.00000000	      0.00000000
      5.09000000	     50.31102680	      1.97454534	     -1.75300891	      0.75285177	      0.96411453	     -0.27562890	     16.61630510	    -14.48520211	      7.47792795	    -62.94576543	      7.60614384	     15.34164814	    -35.19645003	     15.99541341	     -5.49561525	     -0.66880628	    -62.52052624	      2.46978912	     16.05765935	    -27.75063466	      0.00000000	      0.00000000	      0.00000000
      5.10000000	     50.34855910	      2.01480406	     -1.67987465	      0.75295909	      0.96443402	     -0.27550893	     16.47561352	    -14.62416105	      7.02353779	    -62.92747868	      8.61854616	     14.31702095	    -36.29200154	     15.86234740	     -5.68956873	     -0.41347369	    -63.39325136	      2.63931837	     15.84599311	    -28.36332432	      0.00000000	      0.00000000	      0.00000000
      5.11000000	     50.36525049	      2.09784646	     -1.68447100	      0.75308778	      0.96444328	     -0.27566211	     16.28460555	    -14.73649699	      6.43064330	    -62.83049866	      9.87646597	     13.20963215	    -37.69339705	     15.75043062	     -5.83079887	     -0.18041229	    -64.27269912	      2.79403011	     15.62698758	    -28.92266291	      0.00000000	      0.00000000	      0.00000000
      5.12000000	     50.35637690	      2.21148679	     -1.74637518	      0.75317028	      0.96384947	     -0.27636517	     16.06684687	    -14.80234851	      5.84271492	    -62.63181637	     11.20885402	     12.21724362	    -39.35703556	     15.68607795	     -5.95148740	      0.04712859	    -65.17830977	      2.89196883	     15.40984674	    -29.36415800	      0.00000000	      0.00000000	      0.00000000
